<svg viewBox="0 0 60 78.2553" xmlns="http://www.w3.org/2000/svg" xmlns:xlink="http://www.w3.org/1999/xlink" width="60.000000" height="78.255310" fill="none" customFrame="#000000">
	<g id="Group 12">
		<path id="Line 4" d="M0 0L21.1896 0" stroke="rgb(139,92,246)" stroke-opacity="0.600000024" stroke-linecap="round" stroke-width="2.000000" transform="matrix(0.34202,0.939693,-0.939693,0.34202,12.8764,41.1048)" />
		<path id="Line 5" d="M0 0L21.1896 0" stroke="rgb(139,92,246)" stroke-opacity="0.600000024" stroke-linecap="round" stroke-width="2.000000" transform="matrix(-0.34202,0.939693,0.939693,0.34202,47.2473,41.1048)" />
		<g id="Group 13">
			<path id="Vector 46" d="M57 11.0607L47 1.06067L44 16.0607L54 26.0607L57 11.0607Z" fill="rgb(74,74,90)" fill-opacity="0.300000012" fill-rule="nonzero" />
			<path id="Vector 47" d="M60 31.0607L50 21.0607L47 36.0607L57 46.0607L60 31.0607Z" fill="rgb(74,74,90)" fill-opacity="0.5" fill-rule="nonzero" />
		</g>
		<g id="Group 13">
			<path id="Vector 46" d="M13 10L3 0L0 15L10 25L13 10Z" fill="rgb(74,74,90)" fill-opacity="0.300000012" fill-rule="nonzero" transform="matrix(-1,0,0,1,15,1.06067)" />
			<path id="Vector 47" d="M13 10L3 0L0 15L10 25L13 10Z" fill="rgb(74,74,90)" fill-opacity="0.5" fill-rule="nonzero" transform="matrix(-1,0,0,1,13,21.0607)" />
		</g>
		<path id="Vector 46" d="M20 0L40 55L20 75L0 55L20 0Z" fill="rgb(139,92,246)" fill-rule="nonzero" transform="matrix(1,0,0,-1,10,76.0607)" />
		<path id="Vector 47" d="M26.8597 40.8209L14 54.5379L1.1403 40.8209L14 3.0991L26.8597 40.8209ZM28 41.0667L14.5282 1.54955L14 0L13.4717 1.54955L0 41.0667L13.3146 55.2689L14 56L14.6853 55.2689L28 41.0667Z" fill="rgb(255,255,255)" fill-opacity="0.400000006" fill-rule="evenodd" transform="matrix(1,0,0,-1,16,64.0607)" />
		<path id="Vector 57" d="M40 55L20 75L0 55L20 0L40 55Z" fill-rule="nonzero" stroke="rgb(139,92,246)" stroke-opacity="0.5" stroke-width="1.500000" transform="matrix(1,0,0,-1,10,76.0607)" />
	</g>
</svg>
